<?xml version="1.0" encoding="utf-8"?>
<!-- Generator: Adobe Illustrator 28.1.0, SVG Export Plug-In . SVG Version: 6.00 Build 0)  -->
<svg version="1.1" id="Ebene_1" xmlns="http://www.w3.org/2000/svg" xmlns:xlink="http://www.w3.org/1999/xlink" x="0px" y="0px"
	 viewBox="0 0 39.9 39.6" style="enable-background:new 0 0 39.9 39.6;" xml:space="preserve">
<style type="text/css">
	.st0{fill:#FFFFFF;}
</style>
<g id="Gruppe_3" transform="translate(-978.57 -605)">
	<g id="Ebene_1-2" transform="translate(904 605.01)">
		<g id="Gruppe_2">
			<g id="Gruppe_1">
				<path id="Pfad_5" class="st0" d="M114,28.5h-8l-0.3-12.2c-0.1-2.5-0.4-5-0.8-7.5c3.2-0.2,6.4-0.7,9.5-1.2L114,28.5L114,28.5z
					 M109.9,29.9c3,0,4.4,1.7,4.4,3.9c0,2.1-1.4,4-4.4,4c-3.2,0-4.4-1.8-4.4-4S107,29.9,109.9,29.9L109.9,29.9z"/>
			</g>
			<path id="Pfad_22" class="st0" d="M103.2,9.6c0,3.9-2.2,6.5-4.7,8.6v0.2c3.8,1.9,6.1,5,6.1,9.2c0,5.7-4.3,11.9-15.5,11.9
				c-7.6,0-14.5-3-14.5-10.8c0-4,1.7-7,5.6-10v-0.2c-2.8-1.5-4.5-4.5-4.4-7.7C75.7,3.4,82.4,0,89.9,0C98.3,0,103.2,3.7,103.2,9.6
				L103.2,9.6z M92.1,28.6c0-1.8-1.9-3.2-4.1-4.5c-1.2,1.1-1.9,2.7-2,4.3c0,1.8,1.2,2.9,3.3,2.9c1.4,0.2,2.6-0.8,2.8-2.2
				C92.1,28.9,92.1,28.7,92.1,28.6L92.1,28.6z M89.7,7.6c-1.3-0.1-2.3,0.9-2.4,2.1c0,0.1,0,0.2,0,0.3c0,1.3,0.7,2.4,3.1,3.9
				c1.1-1.2,2.1-2.6,2.1-3.9C92.4,8.5,91.5,7.6,89.7,7.6z"/>
		</g>
	</g>
</g>
</svg>
