<svg xmlns="http://www.w3.org/2000/svg" width="280.67" height="306.19" viewBox="0 0 280.67 306.19">
  <g id="ideenlabor-logo-bildmarke-weiss" transform="translate(-104.77 1.48)">
    <path id="Pfad_16" data-name="Pfad 16" d="M380.52,258.48,292.81,101.15c-.3-.6-.55-1.11-.8-1.59-2.31-4.61-3.7-7.39-3.7-13.82,0-.21,0-.42-.01-.63,0-.25-.02-.49-.02-.74V57.36l.02-1.55c0-.74,0-1.66,1.06-1.9a27.4,27.4,0,0,0,21.25-27.09C310.35,12.04,297.8.02,282.63.02H206.86a27.129,27.129,0,0,0-21.62,10.66,27.517,27.517,0,0,0-4.69,24,27.064,27.064,0,0,0,26.34,19.9h.08a4.951,4.951,0,0,0,4-2.04,5.012,5.012,0,0,0,.66-4.58,4.9,4.9,0,0,0-4.69-3.24h-.08a17.426,17.426,0,0,1-17.17-20.3c1.35-8.27,8.93-14.51,17.64-14.51h75.5c8.94,0,16.57,6.43,17.75,14.95a17.418,17.418,0,0,1-17.24,19.86,5.06,5.06,0,0,0-4.93,5.09V83.68c0,11.34.98,13.53,5.59,21.98l87.83,157.55a20.743,20.743,0,0,1,2.13,11.35c-.95,10.53-10.25,18.78-21.17,18.78H304.5a4.935,4.935,0,0,0-4.83,5.94,5.088,5.088,0,0,0,5.11,3.93H353.3a30.655,30.655,0,0,0,27.32-44.53l-.09-.17Z" fill="#ffffff" stroke="#ffffff" stroke-width="5"/>
    <path id="Pfad_17" data-name="Pfad 17" d="M314.56,213.71a69.56,69.56,0,0,0-68.37-69.47h-1.38a69.559,69.559,0,0,0-68.42,69.47c0,13.97,4.65,27.95,13.81,41.57,7.75,11.52,11.22,20.07,11.24,27.73.01,3.38-.84,5.95-2.53,7.65-2.18,2.19-5.44,2.65-7.78,2.65H137.42c-11.4,0-20.93-9.03-21.26-20.13a20.537,20.537,0,0,1,2.19-9.95L211.07,96.71a4.935,4.935,0,0,0-4.32-7.33,4.942,4.942,0,0,0-4.32,2.54L109.68,258.5c-.03.05-.06.11-.09.16a30.655,30.655,0,0,0,27.32,44.53h54.2c6.04,0,11.15-1.92,14.77-5.55,2.48-2.49,5.44-7.05,5.41-14.65-.03-9.73-4.02-19.98-12.92-33.21-8.05-11.96-12.13-24.09-12.13-36.06a59.211,59.211,0,1,1,118.42,0c0,11.97-4.08,24.1-12.13,36.06-5.55,8.25-8.91,14.62-10.88,20.67a9.324,9.324,0,0,1-18.12-2.99,3.391,3.391,0,0,0-.02-.45c0-.07-.69-7.55-.7-12.12,0-1.26-.03-2.7-.09-4.54l-.04-1.13,1.1-.24a38.129,38.129,0,0,0,9.79-3.31,12.076,12.076,0,0,0,6.07-7.51,15.234,15.234,0,0,0-1.59-11.97,13.18,13.18,0,0,0-11.52-6.03,17.38,17.38,0,0,0-3.56.38c-5.29,1.12-9.08,4.7-9.9,9.35a54.415,54.415,0,0,0-.56,9.64v1.26l-1.24.11c-1.59.14-3.03.21-4.26.21-.41,0-.81,0-1.17-.02-2.18-.1-4.71-.3-7.32-.59l-1.22-.14v-1.23q.06-3.255.1-6.92c.07-5.15-4.33-10.04-10.45-11.62a17.6,17.6,0,0,0-4.35-.58A12.3,12.3,0,0,0,211.71,226a15.178,15.178,0,0,0-1.57,11.7,12.565,12.565,0,0,0,6.33,7.77,35.944,35.944,0,0,0,9.79,3.14l1.1.22v1.12c-.04,3.36-.06,6.28-.07,8.81-.09,13.03-.11,16.52-.84,21.67a4.981,4.981,0,0,0,1.08,3.84,4.9,4.9,0,0,0,3.58,1.79h.23a5.109,5.109,0,0,0,4.92-4.51c.79-5.66.81-9.61.9-22.7.01-2.1.03-4.45.05-7.09v-1.49l1.5.15c3.93.39,6.68.53,6.7.53.49.02,1,.03,1.55.03,1.34,0,2.85-.06,4.5-.19l1.43-.11.04,1.43c.03.98.04,1.92.04,2.8.01,4.57.6,11.42.72,12.74v.1a19.192,19.192,0,0,0,37.33,5.87s4.76-10.96,9.73-18.33c9.16-13.62,13.81-27.6,13.81-41.57Zm-87.07,23.38-.02,1.71-1.66-.4a17.743,17.743,0,0,1-4.48-1.54c-.08-.04-.16-.09-.24-.13a2.625,2.625,0,0,1-1.44-1.73,5.387,5.387,0,0,1,.5-3.86,2.616,2.616,0,0,1,2.48-1.28,7.576,7.576,0,0,1,1.89.28,4.1,4.1,0,0,1,3.02,4.06l-.04,2.89Zm34.92.33c.02-1.49.07-2.74.16-3.82a4.032,4.032,0,0,1,2.28-3.36,5.1,5.1,0,0,1,1.74-.31,3.525,3.525,0,0,1,3.06,1.38,5.469,5.469,0,0,1,.55,4.09,2.225,2.225,0,0,1-1.09,1.48c-.1.05-.19.1-.29.15a20.152,20.152,0,0,1-4.7,1.72l-1.73.46.02-1.79Z" fill="#ffffff" stroke="#ffffff" stroke-width="5"/>
  </g>
</svg>
