<svg id="Gruppe_37" data-name="Gruppe 37" xmlns="http://www.w3.org/2000/svg" xmlns:xlink="http://www.w3.org/1999/xlink" width="611.864" height="173.97" viewBox="0 0 611.864 173.97">
  <defs>
    <clipPath id="clip-path">
      <rect id="Rechteck_39" data-name="Rechteck 39" width="611.864" height="173.97" fill="#cee1f5"/>
    </clipPath>
  </defs>
  <g id="Gruppe_36" data-name="Gruppe 36" clip-path="url(#clip-path)">
    <path id="Differenzmenge_2" data-name="Differenzmenge 2" d="M-102.4-263.03H-239.665a17.193,17.193,0,0,1-12.258-5.094,17.306,17.306,0,0,1-5.077-12.3V-419.608a17.309,17.309,0,0,1,5.077-12.3A17.194,17.194,0,0,1-239.665-437H-102.4a17.194,17.194,0,0,1,12.258,5.095,17.309,17.309,0,0,1,5.076,12.3v139.186a17.306,17.306,0,0,1-5.076,12.3A17.19,17.19,0,0,1-102.4-263.03ZM-224.96-373.765h0v74.418h23.132v-74.418H-224.96Zm72.737,17.044c4,0,7.027,1.5,9,4.47,1.805,2.717,2.721,6.64,2.721,11.66v41.242h23.132v-43.981c0-20.107-9.955-32.111-26.631-32.111-14.351,0-21.218,9.2-22.981,12.023h-.455l-1.067-10.349h-20.087c.316,6.962.608,14.657.608,23.74v50.678h23.131v-42.915a16.1,16.1,0,0,1,.763-5.784,14.837,14.837,0,0,1,4.165-5.934A11.694,11.694,0,0,1-152.223-356.72Zm-61.02-49.307c-7.258,0-12.326,4.756-12.326,11.565,0,6.7,5.056,11.565,12.022,11.565,7.347,0,12.478-4.756,12.478-11.565C-201.229-401.379-206.121-406.027-213.243-406.027Z" transform="translate(696.929 437)" fill="#cee1f5" stroke="rgba(0,0,0,0)" stroke-miterlimit="10" stroke-width="1"/>
    <path id="Pfad_19" data-name="Pfad 19" d="M0,35.079H23.132v83.094H63.917v19.48H0Z" fill="#cee1f5"/>
    <path id="Pfad_20" data-name="Pfad 20" d="M96.021,42.538c0,6.39-4.717,11.565-12.478,11.565-7.305,0-12.023-5.175-12.023-11.565,0-6.544,4.871-11.565,12.328-11.565s12.023,5.021,12.173,11.565m-23.892,20.7H95.262v74.418H72.129Z" fill="#cee1f5"/>
    <path id="Pfad_21" data-name="Pfad 21" d="M109.1,86.974c0-9.282-.3-17.042-.608-23.74h20.087l1.067,10.349h.457c3.043-4.871,10.5-12.023,22.978-12.023,15.22,0,26.635,10.2,26.635,32.111v43.981H156.586V96.41c0-9.587-3.347-16.13-11.717-16.13-6.392,0-10.2,4.413-11.872,8.673a16.681,16.681,0,0,0-.759,5.784v42.915H109.1Z" fill="#cee1f5"/>
    <path id="Pfad_22" data-name="Pfad 22" d="M216.7,94.584h.3a100.314,100.314,0,0,1,5.327-8.978l15.066-22.372h27.849L238.609,93.366l30.437,44.286H240.588l-18.111-30.589-5.782,7.3v23.285H193.562V29.6H216.7Z" fill="#cee1f5"/>
    <path id="Pfad_23" data-name="Pfad 23" d="M287,107.824c.609,9.587,10.2,14.153,21,14.153a61.335,61.335,0,0,0,20.547-3.2l3.042,15.675c-7.61,3.2-16.892,4.718-26.936,4.718-25.264,0-39.722-14.609-39.722-37.894,0-18.87,11.72-39.72,37.589-39.72,24.047,0,33.178,18.72,33.178,37.133a54.98,54.98,0,0,1-.762,9.131ZM314.241,92c0-5.63-2.434-15.066-13.087-15.066-9.74,0-13.7,8.981-14.306,15.066Z" fill="#cee1f5"/>
    <path id="Pfad_24" data-name="Pfad 24" d="M416.961,29.6v85.832c0,8.369.3,17.2.609,22.219H397.023l-.912-10.806h-.455c-4.566,8.218-13.7,12.482-23.285,12.482-17.653,0-31.807-15.068-31.807-38.2-.151-25.111,15.524-39.72,33.328-39.72,9.284,0,16.284,3.348,19.631,8.37h.3V29.6ZM393.828,94.738a20.781,20.781,0,0,0-.3-4.263c-1.368-6.085-6.389-11.26-13.542-11.26C369.326,79.215,364,88.65,364,100.369c0,12.629,6.242,20.543,15.829,20.543A13.7,13.7,0,0,0,393.372,109.8a30.016,30.016,0,0,0,.456-5.326Z" fill="#cee1f5"/>
  </g>
</svg>
